<?xml version="1.0" encoding="UTF-8" standalone="no"?>
<!-- Created with Inkscape (http://www.inkscape.org/) -->

<svg
   xmlns:dc="http://purl.org/dc/elements/1.1/"
   xmlns:cc="http://creativecommons.org/ns#"
   xmlns:rdf="http://www.w3.org/1999/02/22-rdf-syntax-ns#"
   xmlns:svg="http://www.w3.org/2000/svg"
   xmlns="http://www.w3.org/2000/svg"
   xmlns:sodipodi="http://sodipodi.sourceforge.net/DTD/sodipodi-0.dtd"
   xmlns:inkscape="http://www.inkscape.org/namespaces/inkscape"
   width="532.77344mm"
   height="539.55658mm"
   viewBox="0 0 1887.7799 1911.8147"
   id="svg2"
   version="1.1"
   inkscape:version="0.91 r13725"
   sodipodi:docname="ifc.svg"
   inkscape:export-filename="/home/jm/Documents/radio campus/émissions/2015-2016/sciences et techniques/site-internet/images/ifc.png"
   inkscape:export-xdpi="12.27"
   inkscape:export-ydpi="12.27">
  <defs
     id="defs4" />
  <sodipodi:namedview
     id="base"
     pagecolor="#ffffff"
     bordercolor="#666666"
     borderopacity="1.0"
     inkscape:pageopacity="1"
     inkscape:pageshadow="2"
     inkscape:zoom="0.22033132"
     inkscape:cx="663.38273"
     inkscape:cy="881.48115"
     inkscape:document-units="px"
     inkscape:current-layer="layer1"
     showgrid="false"
     showguides="false"
     fit-margin-top="0"
     fit-margin-left="0"
     fit-margin-right="0"
     fit-margin-bottom="0"
     inkscape:window-width="1920"
     inkscape:window-height="1024"
     inkscape:window-x="0"
     inkscape:window-y="0"
     inkscape:window-maximized="1" />
  <metadata
     id="metadata7">
    <rdf:RDF>
      <cc:Work
         rdf:about="">
        <dc:format>image/svg+xml</dc:format>
        <dc:type
           rdf:resource="http://purl.org/dc/dcmitype/StillImage" />
        <dc:title />
      </cc:Work>
    </rdf:RDF>
  </metadata>
  <g
     inkscape:label="Calque 1"
     inkscape:groupmode="layer"
     id="layer1"
     transform="translate(1128.5365,1124.8265)">
    <g
       id="g4161"
       transform="matrix(1.7166953,0,0,1.7166953,-491.69744,-1966.8692)">
      <path
         sodipodi:nodetypes="sssccssssccsszscssss"
         inkscape:connector-curvature="0"
         id="path4147"
         d="m 416.56599,-751.44738 c 70.05499,2.06239 137.56999,9.78603 200.15845,29.0765 15.12711,4.66235 22.37305,18.06904 31.84699,30.75018 2.29777,3.07563 1.96428,10.625 1.96428,10.625 -2.35305,4.43885 -8.94092,2.61608 -14.82142,0.80357 -5.8805,-1.81251 -8.34303,-10.06012 -14.28572,-11.42857 -14.74761,-3.396 -32.27991,0.78665 -44.28571,10 -25.17791,19.32173 -35.25895,28.04131 -44.28572,84.28572 -8.21903,51.21153 -38.82235,337.97748 -1.60114,405.1481 3.57791,6.45682 32.13843,-2.10819 38.68707,-1.36747 6.57491,0.44891 12.3999,2.49308 17.55693,2.46937 4.66289,8.15268 -7.93786,15.74483 -14.64286,22.32143 -6.24078,6.12127 -14.50013,10.29246 -22.85714,12.85714 -38.37233,11.77606 -86.24625,13.60275 -120,10 -33.75375,-3.60275 -97.33469,-10.15146 -121.98077,-16.34978 -4.22809,-1.06334 -5.83122,-8.76885 -6.83576,-11.71657 -5.531,-15.34148 -16.20641,-43.51346 -18.48477,-65.38253 -11.50233,-110.40641 -12.63794,-251.99726 7.3013,-376.55112 3.90403,-24.3872 10.58629,-49.44998 24.28571,-70 28.03257,-42.05067 63.04982,-66.6959 102.28028,-65.54097 z"
         style="fill:#000000;fill-opacity:1;fill-rule:evenodd;stroke:#000000;stroke-width:1px;stroke-linecap:butt;stroke-linejoin:miter;stroke-opacity:1" />
      <path
         sodipodi:nodetypes="ccssscsccczsccc"
         inkscape:connector-curvature="0"
         id="path4149"
         d="m 363.57143,-750.90641 c -398.710048,-23.29588 -693.25104,29.64524 -1010.05076,75.25254 -7.12584,-4.61994 -23.32179,-11.81456 -40.66353,-7.3954 -49.84667,12.70233 -70.92332,75.91211 -73.09481,150.67096 -1.79802,61.90108 27.6365,98.99862 47.80638,111.34192 12.31284,7.53505 23.65479,7.94148 29.57415,5.12998 21.32883,12.28767 353.24818,146.86297 548.57143,180 140.2805138,23.79891 420.71428,72.14285 420.71428,72.14285 l -14.46178,-29.53983 c -223.887111,-42.07823 -412.91151,-21.22055 -956.2525,-229.74588 -2.85273,6.65637 -56.97371,2.86423 -52.85715,-110 4.11656,-112.86423 53.98999,-142.37077 58.57143,-144.28571 12.63462,-5.28099 28.49221,4.28571 28.49221,4.28571 517.56251,-57.78317 812.7518,-71.88341 976.50779,-59.28572 z"
         style="fill:#000000;fill-opacity:1;fill-rule:evenodd;stroke:#000000;stroke-width:1px;stroke-linecap:butt;stroke-linejoin:miter;stroke-opacity:1" />
      <path
         sodipodi:nodetypes="csssscsssscc"
         inkscape:connector-curvature="0"
         id="path4151"
         d="m -630.62518,-608.44458 c 273.61819,111.2587 509.02644,146.24827 839.69892,173.94954 12.31306,1.0315 11.19421,14.35382 13.67979,24.92901 1.6097,6.84864 -2.21267,17.59694 -6.89691,22.84602 -4.06058,4.55021 -2.79522,3.86588 -8.85751,4.53027 -288.511609,31.61937 -869.71718,-41.72075 -869.71718,-41.72075 0,0 621.923903,63.92804 856.88002,30.48824 4.88217,-0.69485 4.18543,-5.19524 3.20929,-10.02903 -1.18374,-5.86182 -3.6488,-9.11225 -9.62786,-9.2267 -93.630025,-1.79228 -256.487853,-25.36396 -383.50998,-46.53468 -164.3316,-27.38907 -474.49749,-132.405 -466.95147,-141.2087 z"
         style="fill:#000000;fill-opacity:1;fill-rule:evenodd;stroke:#000000;stroke-width:1px;stroke-linecap:butt;stroke-linejoin:miter;stroke-opacity:1" />
      <path
         sodipodi:nodetypes="cssssssccccssscccc"
         inkscape:connector-curvature="0"
         id="path4153"
         d="m 657.90414,-676.64196 c 0,0 25.0044,-0.41244 34.49985,6.41858 10.54642,7.58708 24.50906,34.97922 28.08127,55.36022 13.18744,75.24 10.81451,158.41835 3.20929,235.88271 -5.32308,54.21917 -17.85271,101.28736 -52.15094,143.61566 -14.80311,18.26889 -35.87293,33.16969 -58.56951,39.31378 -8.27689,2.2406 -15.49544,0.50073 -24.06967,0.40117 -13.64904,-0.1585 -42.52307,-0.40117 -42.52307,-0.40117 l 45.73236,-15.67192 c -2.23724,-20.35788 -5.75541,-22.7067 -6.01741,-42.09527 5.94997,17.34769 8.14286,24.35709 24.0926,41.15158 0,0 32.09612,-15.75079 52.66961,-44.42065 36.12502,-50.34142 37.52315,-76.43389 42.92426,-128.83041 8.17395,-79.29611 14.0108,-152.06568 -4.55694,-231.25697 -3.39255,-14.46922 -24.31502,-39.94676 -24.31502,-39.94676 -12.19412,-1.45124 -15.08785,3.09996 -26.22758,10.16537 l 24.87198,-21.26154 z"
         style="fill:#000000;fill-opacity:1;fill-rule:evenodd;stroke:#000000;stroke-width:1px;stroke-linecap:butt;stroke-linejoin:miter;stroke-opacity:1" />
      <path
         sodipodi:nodetypes="ccccccccccccsccccccccccccccccccccscccccccccc"
         inkscape:connector-curvature="0"
         id="path4155"
         d="m -662.63841,-689.12582 -15.31784,-1.13466 -2.26931,-5.10595 -17.01983,0 -1.70198,-4.53861 c -63.15936,-3.65714 -129.17172,-6.36329 -196.86261,-8.50992 l -3.97129,4.53862 -38.57827,0 c -7.94883,2.53799 -7.05455,-0.48254 -39.71291,17.58715 -7.92221,-2.12674 -22.12575,5.10595 -22.12575,5.10595 -24.3976,3.60245 -50.3006,12.85005 -77.7239,27.79904 l -13.6158,1.13466 c -0.1314,-2.95755 -47.4495,22.06023 -45.6699,81.12782 1.5897,52.76704 30.9831,64.96747 34.8906,66.3773 l 15.3179,3.9713 c 29.1228,20.38545 58.2456,31.53724 87.3684,39.14559 12.43424,11.44663 24.9544,24.44001 36.87629,26.66439 l 30.06835,5.67327 3.1203,4.82228 203.38688,22.97676 c 4.15155,-1.23031 8.9388,-2.38117 10.21189,-3.97129 4.42682,4.03075 8.41416,2.3483 12.4812,1.70198 l -7.94258,-6.2406 -15.88517,6.2406 -12.4812,-2.26931 -1.13466,-5.10594 -174.73684,-18.72181 -12.4812,0 -5.67328,-2.26931 -28.36637,-5.10594 c -15.11906,-5.13356 -23.31994,-16.49348 -33.47231,-26.09706 -29.9948,-7.5008 -60.2428,-21.07778 -90.7724,-41.41491 -4.3923,-0.94554 -9.2249,-1.89109 -14.7505,-2.83663 -8.6821,-2.54358 -32.861,-23.92029 -32.905,-64.39166 -0.033,-30.52276 16.5061,-63.07896 40.9894,-77.0147 6.6907,-2.02622 24.2533,-2.6948 24.2533,-2.6948 25.8605,-20.58261 54.7582,-21.31063 69.32077,-26.64035 12.1411,-6.13671 17.35166,-3.5195 25.42287,-6.26464 14.74098,-8.5993 26.55634,-12.71783 38.86192,-17.58716 l 34.89064,2.83664 10.21189,-4.53862 c 66.08617,1.36457 124.82019,5.67001 187.21805,8.50991 l 14.75051,7.94259 z"
         style="fill:#000000;fill-opacity:1;fill-rule:evenodd;stroke:#000000;stroke-width:1px;stroke-linecap:butt;stroke-linejoin:miter;stroke-opacity:1" />
    </g>
    <rect
       style="fill:#000000;fill-opacity:1;stroke:none;stroke-width:3;stroke-linecap:round;stroke-linejoin:round;stroke-miterlimit:4;stroke-dasharray:none;stroke-dashoffset:0;stroke-opacity:1"
       id="rect4154"
       width="1704.5118"
       height="1697.35"
       x="-1005.3312"
       y="-1059.584"
       ry="222.01624"
       transform="matrix(0.98729233,-0.1589146,0.1589146,0.98729233,0,0)" />
    <rect
       style="fill:#ffffff;fill-opacity:1;stroke:none;stroke-width:3;stroke-linecap:round;stroke-linejoin:round;stroke-miterlimit:4;stroke-dasharray:none;stroke-dashoffset:0;stroke-opacity:1"
       id="rect4154-5"
       width="1415.4531"
       height="1247.7972"
       x="-944.65149"
       y="-460.80905"
       ry="163.21399" />
    <text
       xml:space="preserve"
       style="font-style:normal;font-weight:normal;font-size:1086.92871094px;line-height:125%;font-family:sans-serif;letter-spacing:0px;word-spacing:0px;fill:#000000;fill-opacity:1;stroke:none;stroke-width:1px;stroke-linecap:butt;stroke-linejoin:miter;stroke-opacity:1"
       x="-922.30603"
       y="654.40961"
       id="text4157"
       sodipodi:linespacing="125%"><tspan
         sodipodi:role="line"
         id="tspan4159"
         x="-922.30603"
         y="654.40961"
         style="font-style:normal;font-variant:normal;font-weight:normal;font-stretch:normal;font-family:'DejaVu Sans';-inkscape-font-specification:'DejaVu Sans'">ifc</tspan></text>
  </g>
</svg>
